<svg xmlns="http://www.w3.org/2000/svg" xmlns:xlink="http://www.w3.org/1999/xlink" version="1.1" x="0px" y="0px" viewBox="0 0 52 65" enable-background="new 0 0 52 52" xml:space="preserve"><g><g><path d="M28,22.5h-4c-0.5527344,0-1-0.4477539-1-1v-5c0-0.5522461,0.4472656-1,1-1h4c0.5527344,0,1,0.4477539,1,1v5    C29,22.0522461,28.5527344,22.5,28,22.5z M25,20.5h2v-3h-2V20.5z"/></g><g><path d="M26,9.5c-0.5527344,0-1-0.4477539-1-1v-2c0-0.5522461,0.4472656-1,1-1s1,0.4477539,1,1v2    C27,9.0522461,26.5527344,9.5,26,9.5z"/></g><g><path d="M46,42.5H6c-0.5527344,0-1-0.4477539-1-1c0-11.5795898,9.4208984-21,21-21s21,9.4204102,21,21    C47,42.0522461,46.5527344,42.5,46,42.5z M7.0263672,40.5h37.9472656C44.4521484,30.4868164,36.140625,22.5,26,22.5    S7.5478516,30.4868164,7.0263672,40.5z"/></g><g><path d="M47,46.5H5c-1.6542969,0-3-1.3457031-3-3s1.3457031-3,3-3h42c1.6542969,0,3,1.3457031,3,3S48.6542969,46.5,47,46.5z     M5,42.5c-0.5517578,0-1,0.4487305-1,1s0.4482422,1,1,1h42c0.5517578,0,1-0.4487305,1-1s-0.4482422-1-1-1H5z"/></g><g><path d="M26,17.5c-2.7568359,0-5-2.2431641-5-5s2.2431641-5,5-5s5,2.2431641,5,5S28.7568359,17.5,26,17.5z M26,9.5    c-1.6542969,0-3,1.3457031-3,3s1.3457031,3,3,3s3-1.3457031,3-3S27.6542969,9.5,26,9.5z"/></g></g><text x="0" y="67" fill="#000000" font-size="5px" font-weight="bold" font-family="'Helvetica Neue', Helvetica, Arial-Unicode, Arial, Sans-serif">Created by DinosoftLab</text><text x="0" y="72" fill="#000000" font-size="5px" font-weight="bold" font-family="'Helvetica Neue', Helvetica, Arial-Unicode, Arial, Sans-serif">from the Noun Project</text></svg>